PathFileType	4	(X/Y/Z)	c:/Users/goper/Files/vsCode/490R/osim_files/C11/C11_SSWS_02.trc
DataRate	CameraRate	NumFrames	NumMarkers	Units                	OrigDataRate	OrigDataStartFrame	OrigNumFrames
120.00	120.00	5	36	mm	120.0	620	1238
                Frame#	Time	LPSI			LASI			LTH1			LTH2			LTH3			LTH4			LLFE			LMFE			LSH1			LSH2			LSH3			LSH4			LLMA			LMMA			LCAL			LMTP			LTOE			LMTP			RPSI			RASI			RTH1			RTH2			RTH3			RTH4			RLFE			RMFE			RSH1			RSH2			RSH3			RSH4			RLMA			RMMA			RCAL			RMTP			RTOE			RMTP		
		X1	Y1	Z1	X2	Y2	Z2	X3	Y3	Z3	X4	Y4	Z4	X5	Y5	Z5	X6	Y6	Z6	X7	Y7	Z7	X8	Y8	Z8	X9	Y9	Z9	X10	Y10	Z10	X11	Y11	Z11	X12	Y12	Z12	X13	Y13	Z13	X14	Y14	Z14	X15	Y15	Z15	X16	Y16	Z16	X17	Y17	Z17	X18	Y18	Z18	X19	Y19	Z19	X20	Y20	Z20	X21	Y21	Z21	X22	Y22	Z22	X23	Y23	Z23	X24	Y24	Z24	X25	Y25	Z25	X26	Y26	Z26	X27	Y27	Z27	X28	Y28	Z28	X29	Y29	Z29	X30	Y30	Z30	X31	Y31	Z31	X32	Y32	Z32	X33	Y33	Z33	X34	Y34	Z34	X35	Y35	Z35	X36	Y36	Z36

620	5.15833	-490.27692	964.70502	259.78458	-661.97467	959.66034	341.05887	-488.03436	590.72162	368.13290	-482.88019	543.25970	368.01660	-544.73248	578.39856	386.78268	-532.31976	534.25977	381.83307	-481.12433	475.35721	369.86322	-517.06995	463.58658	264.45206	-378.12180	423.55151	374.07565	-350.42834	389.04523	373.19870	-422.23849	380.74622	383.87982	-388.21320	351.93564	381.59186	-193.15710	161.46750	313.03604	-237.64055	162.46307	225.60555	-133.08215	162.82144	249.85011	-250.47221	51.66304	346.68289	-326.50150	53.47680	287.37027	-297.78296	46.90640	237.18558	-496.48239	976.91418	177.44719	-665.80444	955.05896	108.57629	-716.71075	610.70984	73.10011	-737.68317	573.46674	81.43210	-772.85803	636.82971	87.36053	-785.04175	595.13348	92.13832	-788.15497	508.24048	101.87784	-762.81281	483.72699	210.41599	-751.05109	388.30399	84.40248	-764.49390	344.76630	87.84663	-811.57465	400.34448	94.86008	-817.10803	353.07047	95.38657	-826.97821	94.19081	141.39101	-857.57190	109.54054	237.98729	-768.76086	59.99633	201.18031	-985.29669	56.46339	212.69086	-986.27332	69.60450	161.76924	-943.37372	41.99102	104.48686
621	5.16667	-502.17502	964.80371	259.48257	-674.16815	960.16815	340.01352	-505.89673	588.11920	367.77087	-501.42239	540.59668	367.77347	-562.68658	576.68152	386.28430	-551.05078	532.35803	381.39914	-500.14041	473.74075	369.68655	-536.45044	461.17523	264.32956	-396.30917	425.32172	374.12888	-367.58932	391.69388	373.30576	-439.07471	381.30743	384.37341	-404.30148	353.49194	382.02518	-203.18811	168.64752	314.04636	-248.21803	167.65996	227.02615	-143.93503	174.38771	250.73767	-252.90723	54.88788	346.63834	-327.60068	53.73845	287.03247	-300.39621	48.31310	237.08621	-507.89923	977.61902	177.10657	-677.14130	956.50769	107.83674	-727.44049	611.80475	72.58701	-748.28809	574.46619	81.24293	-783.73187	637.71210	86.55430	-795.76031	596.02563	91.70667	-798.96832	509.03763	102.67776	-771.74878	484.41687	210.50113	-760.56409	389.81915	83.45515	-773.16772	345.62796	87.14214	-821.00629	400.42413	95.62856	-825.33099	353.04874	96.23094	-827.69165	95.05460	141.64406	-858.14502	108.94073	238.67206	-769.16589	60.18760	201.38251	-986.19897	54.33630	213.56349	-987.11420	68.23730	163.37796	-943.72803	42.01212	104.78475
622	5.17500	-512.93530	965.48090	258.98508	-686.13593	960.78949	338.85101	-523.64111	585.61218	367.27530	-520.45239	537.95471	367.46106	-581.59125	574.99829	385.95840	-570.66772	530.33179	381.15619	-520.72125	471.57571	369.90005	-556.79004	458.58392	264.44632	-415.38629	427.10571	374.27142	-385.65479	394.48883	373.51376	-456.83292	381.90601	384.77719	-421.15634	355.10754	382.48904	-214.19174	176.18309	315.21710	-259.61856	173.32326	228.73395	-156.05684	186.68562	251.68474	-256.01300	59.00267	346.54095	-330.05414	54.55642	287.17813	-303.50397	50.65940	237.15442	-519.86841	978.52789	176.19333	-688.41510	958.04510	106.98612	-737.71460	612.73566	72.42664	-758.26172	575.29333	81.50713	-794.28094	638.28021	86.01586	-805.97510	596.66357	91.64637	-809.16858	509.97430	103.65602	-780.80255	485.98065	211.35439	-769.44952	391.51028	82.66882	-780.96967	347.13043	86.65710	-830.88519	400.76950	96.92665	-833.28088	353.39346	97.11826	-828.33228	95.21664	142.18237	-858.71088	108.54726	239.08046	-769.33136	60.43853	201.42270	-986.47632	53.12095	213.69164	-987.68628	67.23900	163.26411	-943.92322	41.82027	104.63428
623	5.18333	-524.07764	965.85602	258.65927	-697.44855	961.68042	337.69171	-542.63641	582.96661	366.89551	-540.00256	535.28711	367.02353	-600.29907	573.58246	385.41785	-590.30939	528.58850	380.74670	-540.88409	470.28214	369.76950	-577.43762	455.59543	264.22867	-435.40964	429.01270	374.27512	-404.70969	397.32281	373.48199	-475.39291	382.73941	384.69980	-438.94705	357.05341	382.69827	-226.34691	184.44476	316.51111	-271.87943	179.46210	230.38998	-170.30597	198.95586	251.78236	-259.86053	64.40842	346.61618	-333.57669	55.91082	287.61258	-307.38071	54.13479	237.40967	-529.95294	979.95642	176.56337	-698.83923	959.59973	106.27987	-747.34772	613.54828	72.40881	-767.56805	576.00525	81.80038	-804.19342	638.70203	85.77999	-815.53992	597.02307	91.68483	-818.62115	510.76419	104.49117	-789.76660	488.19846	212.25288	-777.71399	393.16711	82.16666	-788.33734	348.58279	86.18533	-838.20435	401.48856	97.16512	-840.60052	353.88983	97.79742	-828.64209	95.28937	142.57800	-858.92456	108.32272	239.42770	-769.39978	60.51513	201.40891	-986.59558	52.43651	213.89497	-987.93677	66.50674	163.64262	-944.06592	41.77691	104.61006
624	5.19167	-535.45111	966.20795	258.57489	-708.66681	962.72266	336.79010	-561.40686	580.47614	366.32404	-559.98285	532.66492	366.47260	-619.27350	572.34998	384.90182	-610.13861	527.21191	380.05334	-562.16919	468.60626	369.07623	-599.01605	453.58505	263.78064	-456.21967	431.06805	374.10178	-424.72641	400.20514	373.49820	-494.95612	383.72818	384.72427	-456.90958	359.63800	382.42459	-239.52618	193.57272	317.89148	-285.01178	186.27673	231.86319	-184.73210	212.47044	253.06203	-264.91867	71.42736	346.71899	-338.29916	57.88337	288.25546	-311.97369	58.93509	237.82977	-540.71375	981.26526	176.28775	-710.12445	961.38702	105.19989	-755.79974	614.75372	73.34450	-776.04797	576.71222	82.06079	-813.36462	639.08179	85.20451	-824.30524	597.24231	91.59528	-826.87726	511.13629	104.99712	-797.74609	490.04495	212.83383	-784.95642	394.51608	81.92501	-794.93488	349.72266	85.94582	-845.38739	401.71866	97.76504	-847.13434	354.13657	98.18658	-828.88806	95.42465	142.87178	-859.17206	108.19011	239.70235	-769.42242	60.59588	201.39644	-986.79199	52.00001	214.06807	-988.08063	66.04001	163.82719	-944.16815	41.78072	104.70061
